Coordinates
version=1
nRows=19
nColumns=24
inDegrees=yes

Units are S.I. units (second, meters, Newtons, ...)
Angles are in degrees.

endheader
time	pelvis_tilt	pelvis_list	pelvis_rotation	pelvis_tx	pelvis_ty	pelvis_tz	hip_flexion_r	hip_adduction_r	hip_rotation_r	knee_angle_r	ankle_angle_r	subtalar_angle_r	mtp_angle_r	hip_flexion_l	hip_adduction_l	hip_rotation_l	knee_angle_l	ankle_angle_l	subtalar_angle_l	mtp_angle_l	lumbar_extension	lumbar_bending	lumbar_rotation
      0.68700000	     -0.48884845	     -2.58307228	      2.19504263	     -0.48101051	      0.99067420	      0.30710917	     12.03190251	      6.73168182	     -3.94307561	    -19.49430249	      9.36374362	     -8.92279374	     -0.01244452	     21.80295581	     -2.49080196	     -0.27153361	    -72.04504150	     -6.34965214	     -7.91221576	      1.93360294	     -1.35187409	      6.42153302	      3.49466273
      0.69116667	     -0.44523292	     -2.48628878	      2.19740593	     -0.47562067	      0.99166487	      0.30721772	     11.38235221	      6.65825368	     -3.93810553	    -19.01488301	      9.42798851	     -8.83635413	     -0.02157099	     22.36552263	     -2.32620802	     -0.23056138	    -71.76588273	     -5.78333995	     -8.19977486	      1.86448015	     -1.39486553	      6.29996067	      3.55465420
      0.69533333	     -0.38287067	     -2.38388616	      2.18782333	     -0.47022649	      0.99264424	      0.30732207	     10.70763712	      6.57997446	     -3.91721043	    -18.52354060	      9.47443766	     -8.73174100	     -0.03094984	     22.88068722	     -2.15631738	     -0.19890932	    -71.41140358	     -5.22078038	     -8.48018477	      1.79724612	     -1.46602631	      6.20431104	      3.63190306
      0.69950000	     -0.25197710	     -2.27408305	      2.18662366	     -0.46478632	      0.99371586	      0.30743452	      9.93337426	      6.49734838	     -3.89706465	    -17.98151517	      9.50079355	     -8.58137184	     -0.05167264	     23.29125352	     -1.99309922	     -0.18249382	    -70.97061332	     -4.72679082	     -8.71637232	      1.65485714	     -1.61804907	      6.07252135	      3.76661098
      0.70366667	     -0.18082632	     -2.16881540	      2.15515896	     -0.45937180	      0.99464056	      0.30756565	      9.24926287	      6.41756704	     -3.86214281	    -17.49049432	      9.54497124	     -8.46885961	     -0.07172580	     23.74858265	     -1.84076108	     -0.19548696	    -70.48073547	     -4.17407612	     -8.99564297	      1.51925631	     -1.69500681	      5.95153893	      3.88167420
      0.70783333	     -0.11660261	     -2.05095861	      2.11033759	     -0.45396942	      0.99550710	      0.30769974	      8.58170531	      6.32242949	     -3.81681229	    -17.01751096	      9.59895648	     -8.35802450	     -0.08809819	     24.18865277	     -1.67921225	     -0.22536602	    -69.92374579	     -3.62527108	     -9.26837671	      1.40908285	     -1.76509180	      5.82335807	      3.98986344
      0.71200000	     -0.05242861	     -1.93313053	      2.05699598	     -0.44857231	      0.99631822	      0.30783905	      7.91642513	      6.22680694	     -3.75813996	    -16.54729479	      9.64910049	     -8.23454995	     -0.10612113	     24.60701710	     -1.52283933	     -0.26541946	    -69.30571046	     -3.09220393	     -9.53475180	      1.28806679	     -1.84650212	      5.69667732	      4.12283483
      0.71616667	      0.00113464	     -1.82236858	      1.99202350	     -0.44318635	      0.99705851	      0.30798996	      7.27031631	      6.13723831	     -3.69275051	    -16.08930999	      9.70216536	     -8.11538445	     -0.12294033	     25.01668718	     -1.38132105	     -0.31856760	    -68.63271482	     -2.55095514	     -9.79436446	      1.17506876	     -1.91565736	      5.57535618	      4.25550748
      0.72033333	      0.09190165	     -1.70380579	      1.93221768	     -0.43779143	      0.99780149	      0.30813434	      6.57515397	      6.03880195	     -3.63219907	    -15.61162998	      9.75639075	     -7.96263824	     -0.14530782	     25.36161684	     -1.23458202	     -0.37407369	    -67.89414476	     -2.05522940	    -10.03822679	      1.01486813	     -2.03456583	      5.43672601	      4.43327242
      0.72450000	      0.13372836	     -1.58570281	      1.84690313	     -0.43240490	      0.99841582	      0.30830055	      5.95431756	      5.93514134	     -3.57074556	    -15.17561921	      9.81543212	     -7.81165480	     -0.16683712	     25.73632831	     -1.10014357	     -0.45838633	    -67.10078893	     -1.54543052	    -10.28975894	      0.84887189	     -2.09397363	      5.29929551	      4.59147346
      0.72866667	      0.20373332	     -1.46870156	      1.76105838	     -0.42702263	      0.99902050	      0.30845164	      5.30270716	      5.82977957	     -3.51009420	    -14.73616641	      9.87924554	     -7.65368827	     -0.18838284	     26.05610767	     -0.96758306	     -0.54201034	    -66.24680578	     -1.05391955	    -10.53079978	      0.66429130	     -2.18681206	      5.17648784	      4.75566391
      0.73283333	      0.24903451	     -1.36852709	      1.66642299	     -0.42165292	      0.99950726	      0.30862297	      4.68966719	      5.74136297	     -3.44963738	    -14.31569601	      9.93765641	     -7.48475373	     -0.21086927	     26.38712473	     -0.85997699	     -0.63189933	    -65.34956844	     -0.57529077	    -10.75993436	      0.44855891	     -2.25112115	      5.06650536	      4.93033380
      0.73700000	      0.28818880	     -1.26145216	      1.55624482	     -0.41628455	      0.99992388	      0.30880909	      4.09391850	      5.64079110	     -3.39044612	    -13.91517691	     10.00501303	     -7.32076606	     -0.22603090	     26.70098889	     -0.75791068	     -0.74907472	    -64.39753904	     -0.11376001	    -10.99182526	      0.27062026	     -2.30554105	      4.94208995	      5.07371588
      0.74116667	      0.27326287	     -1.17570821	      1.43626530	     -0.41096345	      1.00018379	      0.30897969	      3.57768808	      5.55943197	     -3.30559090	    -13.54976600	     10.06897915	     -7.17048385	     -0.23365093	     27.06086871	     -0.67064204	     -0.84900073	    -63.40733377	      0.34618724	    -11.21375861	      0.14767278	     -2.30955280	      4.86931694	      5.19254400
      0.74533333	      0.28941984	     -1.06460481	      1.32300378	     -0.40560232	      1.00043717	      0.30912101	      3.04456711	      5.42916377	     -3.36971997	    -13.21716537	     10.19146961	     -6.64925553	     -0.32229190	     27.35731930	     -0.56131705	     -0.96434992	    -62.35264805	      0.75021335	    -11.36717542	     -1.43314679	     -2.34101264	      4.73957631	      5.59093068
      0.74950000	      0.32764200	     -0.99593438	      1.22211968	     -0.40026491	      1.00066134	      0.30929242	      2.45336360	      5.37066343	     -3.27416062	    -12.81199784	     10.23819182	     -6.64702950	     -0.32496111	     27.61598466	     -0.49548700	     -1.05239485	    -61.25584918	      1.13137958	    -11.60678268	     -1.52510210	     -2.40613489	      4.67382162	      5.57161088
      0.75366667	      0.35381880	     -0.92725599	      1.12784651	     -0.39489834	      1.00081725	      0.30947420	      1.87305914	      5.30727199	     -3.22714589	    -12.39837129	     10.29730496	     -6.53899715	     -0.32505067	     27.86741819	     -0.43827369	     -1.15094622	    -60.10951167	      1.44087130	    -11.78697279	     -1.64974211	     -2.44731469	      4.58316091	      5.69622282
      0.75783333	      0.34931428	     -0.87336898	      1.01800102	     -0.38959019	      1.00085034	      0.30964404	      1.35543012	      5.25500782	     -3.16080743	    -12.03873679	     10.36673401	     -6.39032394	     -0.32218779	     28.13484580	     -0.39173414	     -1.23876314	    -58.92163731	      1.75201300	    -11.94600755	     -1.75982005	     -2.46473793	      4.53642479	      5.82049764
      0.76200000	      0.35249740	     -0.81805926	      0.91950153	     -0.38425732	      1.00084976	      0.30981079	      0.82553307	      5.19797814	     -3.13474638	    -11.66916646	     10.44047706	     -6.22107425	     -0.31743652	     28.36971431	     -0.34505453	     -1.32591184	    -57.67937381	      2.00406653	    -12.10092553	     -1.89070794	     -2.48743174	      4.47132743	      5.96940371
